PathFileType	4	(X/Y/Z)	C:/Users/beibeiliu/ov580/test_trc/User3\sequence.40_training_dense_left.trc
DataRate	CameraRate	NumFrames	NumMarkers	Units	OrigDataRate	OrigDataStartFrame	OrigNumFrames
120	120	13	19	mm	120	252	287
Frame#	Time	ThumbCMC			ThumbMCP			ThumbIP			ThumbTip			IndexMCP			IndexPIP			IndexTip			MiddleMCP			MiddlePIP			MiddleTip			RingMCP			RingPIP			RingTip			PinkyMCP			PinkyPIP			PinkyTip			BackHand1			BackHand2			BackHand3	
		X0	Y0	Z0	X1	Y1	Z1	X2	Y2	Z2	X3	Y3	Z3	X4	Y4	Z4	X5	Y5	Z5	X6	Y6	Z6	X7	Y7	Z7	X8	Y8	Z8	X9	Y9	Z9	X10	Y10	Z10	X11	Y11	Z11	X12	Y12	Z12	X13	Y13	Z13	X14	Y14	Z14	X15	Y15	Z15	X16	Y16	Z16	X17	Y17	Z17	X18	Y18	Z18	
251	2.09167	-175.356	15.1217	74.5962	-151.303	24.374	50.6514	-137.735	31.2998	22.3793	-132.524	28.3952	-1.69905	-188.759	51.9799	5.94655	-167.338	61.9001	-13.4467	-138.833	58.5309	-17.3298	-188.941	35.9532	-9.08456	-163.796	41.3833	-26.398	-128.321	32.2643	-21.8099	-193.48	14.862	-14.5566	-172.436	22.1807	-33.1769	-140.633	17.3752	-36.3295	-197.103	-12.0702	-6.71406	-190.26	-5.02034	-31.9206	-169.057	3.4266	-49.8492	-217.831	-7.88656	31.9353	-221.147	-26.5982	58.469	-215.067	6.67149	59.37	
252	2.1	-177.383	12.1417	69.461	-150.838	25.5596	42.7284	-135.875	28.608	19.7068	-127.781	22.2342	-4.76805	-191.863	46.9537	3.56283	-169.44	55.953	-21.7386	-140.322	54.6912	-27.8305	-193.22	29.3745	-16.7251	-169.316	38.643	-33.268	-129.128	30.4423	-30.0836	-194.377	7.78683	-17.0924	-175.209	14.0501	-36.4353	-143.544	9.11	-40.2506	-196.994	-19.8171	-14.4239	-184.325	-8.3718	-35.2435	-164.287	-2.8266	-49.024	-216.446	-13.9152	30.9764	-221.184	-28.7446	56.3682	-215.54	6.25568	56.995	
253	2.10833	-175.24	13.3725	68.5042	-151.378	18.3502	40.2204	-134.103	22.6153	13.8232	-125.859	13.5839	-9.86909	-193.286	38.2294	-6.7981	-175.071	51.1429	-25.3937	-145.651	52.2117	-34.1639	-195.064	22.7736	-20.8517	-174.252	31.7046	-39.533	-135.972	23.8857	-37.7943	-193.569	-0.860515	-22.9712	-172.559	2.05918	-41.0455	-138.617	-0.507791	-37.5497	-195.94	-26.178	-14.8984	-181.958	-18.2976	-36.9329	-163.436	-16.1533	-51.2133	-217.865	-18.8155	25.6825	-221.282	-32.2966	52.4028	-213.111	5.95849	53.5436	
254	2.11667	-176.861	9.17825	59.476	-149.396	14.8407	34.7763	-135.458	13.0767	10.007	-130.179	0.177653	-15.7924	-193.955	31.8905	-7.96405	-175.895	41.7411	-32.2332	-145.04	39.5232	-41.7884	-198.69	10.1271	-20.7596	-175.57	19.8619	-44.4958	-133.925	12.1781	-40.7541	-195.272	-11.1888	-21.3925	-169.066	-6.65054	-41.7355	-138.438	-13.2952	-34.0046	-196	-36.3524	-13.7783	-183.977	-27.9593	-34.4956	-160.783	-24.1122	-49.116	-217.632	-23.1212	26.9602	-218.77	-34.708	55.1128	-213.514	0.877187	53.6482	
255	2.125	-175.163	3.42635	56.238	-150.239	5.72986	32.099	-135.098	2.33617	5.09599	-132.432	-14.0767	-18.123	-194.687	19.0625	-13.0084	-176.276	23.3033	-41.6653	-150.558	20.486	-51.2811	-197.239	2.9634	-24.6797	-177.923	2.30318	-48.2175	-139.122	-5.41902	-46.8507	-195.068	-21.1165	-20.7569	-169.034	-25.4174	-41.9973	-137.502	-26.8151	-32.0293	-197.802	-43.4467	-13.0572	-185.471	-44.8276	-33.4326	-159.565	-41.359	-47.4721	-216.409	-29.647	28.5723	-219.022	-37.5693	57.9521	-213.403	-5.85551	52.0152	
256	2.13333	-171.901	1.70584	55.4072	-146.667	-1.12989	27.0717	-136.792	-12.0385	0.879282	-129.159	-27.9646	-21.3805	-192.802	5.45619	-17.0539	-174.98	7.09045	-48.277	-149.148	-0.796184	-58.7136	-199.492	-19.0248	-26.2871	-180.265	-17.6989	-53.4653	-143.047	-23.7475	-54.291	-192.715	-36.8374	-23.333	-170.429	-43.6008	-41.2186	-139.734	-45.7072	-31.2697	-197.583	-57.6445	-7.52038	-185.55	-54.8073	-30.287	-161.663	-57.0248	-42.2022	-214.706	-38.7161	29.4774	-218.81	-41.0841	60.3359	-211.99	-11.3038	49.2133	
257	2.14167	-168.991	-0.984075	50.3166	-144.31	-8.23412	21.2064	-133.435	-22.7225	0.767583	-126.73	-42.4504	-17.0403	-192.013	-10.7453	-26.7058	-175.716	-18.7638	-52.1205	-152.522	-24.3005	-62.4875	-200.07	-30.9857	-29.0626	-179.684	-40.7213	-56.6694	-144.451	-43.49	-59.2367	-194.124	-53.8648	-16.9669	-171.69	-62.7057	-38.64	-140.22	-60.7467	-32.9911	-194.186	-71.0052	-2.54842	-180.321	-73.4829	-25.9677	-156.904	-77.9949	-37.7196	-212.21	-46.3524	30.1633	-216.953	-45.4193	62.9104	-208.45	-16.8131	41.1695	
258	2.15	-168.87	-8.02581	44.5626	-143.486	-17.3118	23.4199	-125.725	-32.1829	-3.69167	-121.59	-52.8494	-15.5698	-190.269	-27.1481	-27.2615	-176.484	-34.8036	-52.961	-152.329	-41.1386	-65.1404	-201.146	-51.1741	-26.6791	-182.478	-56.8897	-56.8395	-146.907	-67.1962	-60.309	-191.339	-67.6205	-17.7619	-169.508	-75.8015	-38.3451	-135.933	-79.0582	-32.534	-190.733	-81.1802	-0.921056	-174.422	-90.7556	-21.6429	-153.059	-91.6441	-27.9481	-211.814	-55.678	34.7625	-214.09	-47.0856	61.8694	-206.917	-22.4539	41.2044	
259	2.15833	-166.22	-13.2447	40.2457	-139.751	-25.833	18.9413	-126.937	-46.5557	-3.47771	-118.505	-67.7249	-13.0046	-189.37	-37.7658	-26.8482	-175.054	-40.8196	-53.8548	-150.076	-49.9751	-66.1656	-201.175	-59.3094	-25.4794	-188.964	-69.0514	-52.9518	-149.319	-76.9577	-63.9659	-190.598	-78.2541	-15.4725	-172.762	-86.7365	-34.6244	-137.496	-86.8412	-35.4647	-187.113	-88.0094	6.21075	-169.397	-100.18	-13.9096	-143.556	-97.1616	-22.7539	-211.837	-62.3236	37.412	-211.972	-51.7813	63.7087	-207.17	-23.3816	38.1671	
260	2.16667	-166.684	-19.5565	41.3865	-139.617	-32.4919	18.4677	-127.692	-54.5939	-0.28868	-123.241	-77.2842	-6.81426	-187.696	-44.7121	-28.0218	-174.393	-52.3919	-50.2527	-147.796	-56.8459	-65.5198	-200.487	-63.7582	-23.298	-190.68	-74.4982	-52.1107	-154.385	-83.3956	-67.6828	-189.981	-78.3742	-12.0832	-173.166	-89.5547	-35.3646	-140.655	-93.7439	-36.5806	-180.977	-94.8903	1.66793	-165.154	-100.56	-12.0262	-135.014	-98.5998	-19.2527	-208.548	-67.5144	37.8377	-211.031	-57.9072	64.8515	-205.558	-33.041	41.0648	
261	2.175	-168.382	-21.303	44.5081	-140.803	-36.7247	18.8022	-131.278	-62.5804	-0.853505	-127.826	-85.2474	-7.02248	-187.536	-45.0243	-28.8077	-170.971	-54.3118	-53.9057	-146.503	-65.1086	-63.2232	-201.976	-68.9013	-23.7241	-191.582	-82.6877	-51.5973	-163.01	-90.2673	-67.3618	-190.639	-85.058	-10.3211	-172.197	-98.1399	-34.606	-141.565	-96.8294	-38.8456	-180.33	-96.4678	6.26558	-160.577	-103.308	-9.25793	-132.813	-99.7547	-14.5563	-207.082	-70.2849	33.9566	-211.569	-63.604	63.2605	-207.049	-31.0425	39.613	
262	2.18333	-169.851	-23.8705	43.0095	-145.425	-41.657	18.6306	-131.13	-60.7469	2.62877	-128.682	-91.219	-7.34575	-188.536	-54.2342	-27.6525	-170.762	-59.5274	-54.0188	-145.398	-70.6285	-63.7568	-201.956	-72.9299	-20.9131	-195.08	-85.1322	-51.599	-165.991	-97.5365	-70.0538	-191.068	-89.7842	-11.7132	-171.835	-101.265	-34.451	-143.425	-100.151	-39.1603	-179.605	-103.228	5.13776	-155.944	-108.07	-8.97047	-134.645	-105.673	-13.3568	-209.454	-69.0387	37.1619	-212.621	-64.2869	68.0658	-207.307	-38.354	41.4831	
263	2.19167	-169.411	-22.9672	41.3317	-142.877	-41.3059	15.2135	-129.832	-64.1319	-1.4896	-128.341	-89.3396	-6.39897	-189.161	-54.2873	-29.2647	-172.174	-64.5154	-54.2242	-148.73	-69.6778	-65.0556	-203.652	-76.3686	-21.2037	-196.61	-91.0505	-52.2229	-167.03	-101.815	-73.2784	-192.116	-89.4602	-12.1366	-175.361	-104.41	-32.1284	-143.558	-102.826	-38.531	-179.468	-103.025	7.61316	-155.719	-107.286	-8.03406	-129.315	-104.971	-7.94958	-208.616	-75.735	36.5753	-211.553	-66.1528	67.3742	-208.153	-38.22	35.8886	
